User Type,Username,Date,Text
,marshmallow_man,2011-06-30T01:40Z,put that its ANOTHER copy of that Hindi version in the title please so we don't all get excited please...
,BLACK-MAGIC26,2011-06-30T01:42Z,im thinkin this is a fake but ha gotta find out 1 way or another
,j2progeny,2011-06-30T01:43Z,"yeah... seems like it's the same... watchable as if you're like inside the cinema... lol. 

same format mpeg-ps
"
,zerohawk,2011-06-30T01:46Z,sooo is this in english???
,bearklaws,2011-06-30T01:52Z,it is clearly in hindi in the description
,soldierofthelam,2011-06-30T01:52Z,"why do you fucking retards keep uploading the same crappy hindi-u fuckn movie.

the hindi version is already up do not upload more of the dame crap.


"
,Cakeman12,2011-06-30T01:54Z,so this is another hindi version?
,Cakeman12,2011-06-30T01:56Z,if i've repeated sorry new to commenting
,bearklaws,2011-06-30T01:58Z,please post in english :)
,wintersrage,2011-06-30T02:08Z,can anyone confirm
,mkmacabre,2011-06-30T02:26Z,"@ wintersrage : Yes, i can confirm!



I can confirm that i WAS with your mother last night.


"
,zerohawk,2011-06-30T02:53Z,"well i asked if it was in english because it says Spoken language(s):
English
so  mkmacabre ur with her too that night u must of been that dude walking in as i was leaving!!!  lol

@ wintersrage : jk ur mom was pretty good in bed.....lol jk again or am i???"
,soldierofthelam,2011-06-30T03:05Z,"read the title yes its the same crappy hindi

Transformers 3  Dark Of The Moon In Hindi

Format                           : MPEG-PS
File size                        : 801 MiB
Duration                         : 2h 23mn
Overall bit rate                 : 780 Kbps"
,bizysamoan,2011-06-30T03:13Z,@ MITRAPT...we want transformers ( english) man WTF!!!@#%*....lol 
,rcr29budcar,2011-06-30T06:30Z,"Dont' know where you lookin that says Hindi, but here on the P Bay it don't say Hindi no damn where. And the previous comment is true, there are enough fuckin hindi versions put up, no one needs it up any more guy. We need a decent english version.  This upload was USELESS!!!!! "
,rcr29budcar,2011-06-30T06:35Z,"Oh yeah, even if this version was in english you would be wasting your time as well as everyone else. The video in this is pure SHIT!!! I know CAMs are not the best, but this one makes most cams look like dvd.  Another shitty copy.  For those wondering, I downloaded part of this crap and Audio is in Hindi and Video is terrible for a cam.  I wouldn't bother with this one. Its not watchable even if you do understand the language."
,MrJumper,2011-06-30T06:39Z,Dam'n...wheres the English version???
,AARRGG,2011-06-30T11:35Z,the only reason its another hindi copy is that there are alot of trolls that cant get hold of their own version. they do like to take credit for others work though .... trolling is not always a bad thing cos sometimes they can tweek it to improve the view and sound but FFS ppl .... give credit where credit is due
[T],n2kmaster,2011-06-30T13:20Z,I like soup....
,soldierofthelam,2011-06-30T15:00Z,"@rcr29budcar

read the info in the white box for thew torrent it clearly says ""IN HINDI""

Transformers 3  Dark Of The Moon In Hindi

Format                           : MPEG-PS
File size                        : 801 MiB
Duration                         : 2h 23mn
Overall bit rate                 : 780 Kbps

Video
ID                               : 224 (0xE0)
Format                           : MPEG Video
Format version                   : Version 2
Format settings, BVOP            : Yes
Format settings, Matrix          : Default
Duration                         : 2h 23mn
Bit rate mode                    : Constant
Bit rate                         : 700 Kbps
Nominal bit rate                 : 1 150 Kbps
Width                            : 352 pixels
Height                           : 288 pixels
Display aspect ratio             : 1.222
Frame rate                       : 25.000 fps
Standard                         : PAL
Color space                      : YUV
Bit depth                        : 8 bits
Scan type                        : Progressive
Compression mode                 : Lossy
Bits/(Pixel*Frame)               : 0.276
Stream size                      : 719 MiB (90%)

Audio
ID                               : 192 (0xC0)
Format                           : MPEG Audio
Format version                   : Version 1
Format profile                   : Layer 2
Duration                         : 2h 23mn
Bit rate mode                    : Constant
Bit rate                         : 64.0 Kbps
Channel(s)                       : 2 channels
Sampling rate                    : 48.0 KHz
Compression mode                 : Lossy
Stream size                      : 65.7 MiB (8%)"
,ElvaDo,2011-06-30T16:07Z,"5 times a hindi shit.. fuck off and dont seed.. block this asshole. damm stupid quality.
Transformers 3  Dark Of The Moon In Hindi
Transformers 3  Dark Of The Moon In Hindi
Transformers 3  Dark Of The Moon In Hindi
Transformers 3  Dark Of The Moon In Hindi
FUCK OFF"
,gazza2009,2011-06-30T20:01Z,any english out?
,rcr29budcar,2011-06-30T20:43Z,"soldierofthealm

Thanks for pointing that out. Its changed my life.  "
,GIBBO85,2011-06-30T20:50Z,"cri me a river ,, u got two options if u dont want to wait for english copy go see it at the cinimers nd if ur too cheep for that learn to speak hindi lol the world dont revolve around english speaking ppl "
,fromgtown,2011-06-30T21:46Z,thanks to all the uploaders even the fakes. without this shit up here on tpb life would really suck for alot of us. be patient if not get off the cpu get a fucking girl and go see the shit in the movies. 
,M00KEY1,2011-06-30T21:47Z,This is a English movie dipshit so yeah the world does revolve around US
